<?xml version="1.0" ?><svg height="512px" version="1.1" viewBox="0 0 512 512" width="512px" xmlns="http://www.w3.org/2000/svg" xmlns:xlink="http://www.w3.org/1999/xlink"><title/><desc/><defs/><g fill="none" fill-rule="evenodd" id="SVG" stroke="none" stroke-width="1"><g id="Cookie"><g><path d="M486.301163,273.4592 C456.88939,273.4592 433.045108,249.444748 433.045108,219.823071 C433.045108,210.491458 435.414777,201.713135 439.580147,194.074426 C433.307494,196.039845 426.641263,197.105135 419.729045,197.105135 C382.970478,197.105135 353.165127,167.087071 353.165127,130.066168 C353.165127,128.695329 353.28812,127.357523 353.370115,126.011458 C346.293907,128.587974 338.701127,130.066168 330.747566,130.066168 C293.989,130.066168 264.183648,100.048103 264.183648,63.0189419 C264.183648,55.3967484 265.520174,48.1131355 267.857045,41.3002323 C263.904863,42.159071 259.81329,42.6462968 255.598723,42.6462968 C233.804328,42.6462968 214.838777,30.4078452 205.122315,12.3887484 C94.9614077,35.9572645 12.29358,134.467716 12.29358,252.442426 C12.29358,388.006813 121.413145,497.905135 256.0169,497.905135 C384.110215,497.905135 489.048011,398.34591 498.903866,271.890168 C494.85329,272.872877 490.646922,273.4592 486.301163,273.4592" fill="#B4814A" id="Fill-1"/><path d="M267.866884,301.620852 C267.866884,333.340077 242.341696,359.047432 210.847238,359.047432 C179.35278,359.047432 153.827592,333.340077 153.827592,301.620852 C153.827592,269.901626 179.35278,244.194271 210.847238,244.194271 C242.341696,244.194271 267.866884,269.901626 267.866884,301.620852" fill="#513A2B" id="Fill-5"/><path d="M210.849698,256.579716 C186.185462,256.579716 166.129371,276.7872 166.129371,301.6192 C166.129371,326.4512 186.185462,346.658684 210.849698,346.658684 C235.513934,346.658684 255.570024,326.4512 255.570024,301.6192 C255.570024,276.7872 235.513934,256.579716 210.849698,256.579716 M210.849698,371.432877 C172.631612,371.432877 141.530732,340.118297 141.530732,301.6192 C141.530732,263.120103 172.631612,231.805523 210.849698,231.805523 C249.067784,231.805523 280.168664,263.120103 280.168664,301.6192 C280.168664,340.118297 249.067784,371.432877 210.849698,371.432877" fill="#2E2E30" id="Fill-7"/><path d="M12.3222785,253.453213 C19.1934984,258.986116 27.7866231,262.429729 37.2652989,262.429729 C59.4532717,262.429729 77.4348771,244.311535 77.4348771,221.965213 C77.4348771,199.61889 59.4532717,181.508955 37.2652989,181.508955 C31.7798023,181.508955 26.5566912,182.632052 21.7927546,184.638761 C15.6512943,206.184052 12.2976798,228.910245 12.2976798,252.445729 C12.2976798,252.78431 12.3222785,253.114632 12.3222785,253.453213" fill="#513A2B" id="Fill-9"/><path d="M214.710864,121.620645 C214.710864,139.012129 200.714239,153.108645 183.445994,153.108645 C166.177749,153.108645 152.181123,139.012129 152.181123,121.620645 C152.181123,104.229161 166.177749,90.1326452 183.445994,90.1326452 C200.714239,90.1326452 214.710864,104.229161 214.710864,121.620645" fill="#513A2B" id="Fill-11"/><path d="M183.448454,102.519742 C172.994032,102.519742 164.482902,111.091613 164.482902,121.620645 C164.482902,132.149677 172.994032,140.721548 183.448454,140.721548 C193.902875,140.721548 202.414005,132.149677 202.414005,121.620645 C202.414005,111.091613 193.902875,102.519742 183.448454,102.519742 M183.448454,165.495742 C159.423782,165.495742 139.884263,145.816774 139.884263,121.620645 C139.884263,97.4245161 159.423782,77.7455484 183.448454,77.7455484 C207.473125,77.7455484 227.004444,97.4245161 227.004444,121.620645 C227.004444,145.816774 207.473125,165.495742 183.448454,165.495742" fill="#2E2E30" id="Fill-13"/><path d="M412.086248,335.555716 C412.086248,352.9472 398.089622,367.043716 380.821377,367.043716 C363.553132,367.043716 349.556506,352.9472 349.556506,335.555716 C349.556506,318.164232 363.553132,304.067716 380.821377,304.067716 C398.089622,304.067716 412.086248,318.164232 412.086248,335.555716" fill="#513A2B" id="Fill-15"/><path d="M380.822197,316.454813 C370.367775,316.454813 361.856646,325.026684 361.856646,335.555716 C361.856646,346.084748 370.367775,354.656619 380.822197,354.656619 C391.276619,354.656619 399.787748,346.084748 399.787748,335.555716 C399.787748,325.026684 391.276619,316.454813 380.822197,316.454813 M380.822197,379.430813 C356.797526,379.430813 337.258006,359.751845 337.258006,335.555716 C337.258006,311.359587 356.797526,291.680619 380.822197,291.680619 C404.846868,291.680619 424.378188,311.359587 424.378188,335.555716 C424.378188,359.751845 404.846868,379.430813 380.822197,379.430813" fill="#2E2E30" id="Fill-17"/><path d="M256.01526,497.902658 C263.091468,497.902658 270.085682,497.547561 277.014298,496.952981 C277.407877,494.475561 277.678462,491.948594 277.678462,489.355561 C277.678462,463.392206 256.777818,442.350658 230.998444,442.350658 C205.973428,442.350658 185.605754,462.203045 184.441419,487.125884 C207.072167,494.120465 231.105038,497.902658 256.01526,497.902658" fill="#513A2B" id="Fill-19"/><path d="M486.301163,273.4592 C483.308328,273.4592 480.397489,273.153652 477.544047,272.674684 C437.735249,370.863071 342.07934,440.098684 230.262124,440.098684 C152.59602,440.098684 82.6866866,406.686555 33.8747864,353.389006 C72.1010721,438.587458 157.154968,497.905135 256.0169,497.905135 C384.110215,497.905135 489.048011,398.34591 498.903866,271.890168 C494.85329,272.872877 490.646922,273.4592 486.301163,273.4592" fill="#010202" id="Fill-3" opacity="0.2"/><path d="M289.619461,482.988594 C286.454436,453.226529 261.388423,429.963561 231.000903,429.963561 C204.950944,429.963561 182.812169,446.966916 175.071797,470.774916 C93.4535111,439.980594 33.5968218,364.039432 25.5694658,273.291561 C29.3904544,274.19169 33.2770395,274.811045 37.2702186,274.811045 C66.1982186,274.811045 89.7391166,251.1104 89.7391166,221.96769 C89.7391166,193.815948 67.7561324,170.808981 40.1892571,169.272981 C66.7803864,99.8969806 125.423543,45.1707871 199.440849,26.4249806 C211.838563,43.3953032 231.205892,53.9573677 252.295126,54.9565935 C252.024541,57.6404645 251.876949,60.3325935 251.876949,63.0164645 C251.876949,106.817239 287.266191,142.450787 330.748386,142.450787 C334.413584,142.450787 338.070581,142.186529 341.70298,141.658013 C347.385266,180.570013 381.142799,210.175174 421.558364,209.473239 C421.008994,212.892077 420.738409,216.352206 420.738409,219.820594 C420.738409,255.784465 449.445021,285.125368 484.990055,285.835561 C470.386663,387.740077 389.547334,468.058013 289.619461,482.988594 M256.00952,485.515561 C251.524368,485.515561 247.055615,485.3504 242.603262,485.0944 C241.217538,485.011819 239.856414,484.87969 238.47889,484.780594 C235.371262,484.54111 232.263634,484.260335 229.172405,483.896981 C227.62269,483.715303 226.072976,483.51711 224.539661,483.3024 C221.530427,482.889497 218.545792,482.410529 215.561157,481.873755 C214.109838,481.617755 212.658518,481.378271 211.215398,481.097497 C207.5584,480.370787 203.926001,479.544981 200.310001,478.644852 C199.711434,478.496206 199.096468,478.380594 198.489702,478.22369 C203.081448,464.498787 215.930137,454.737755 231.000903,454.737755 C248.588931,454.737755 263.134926,468.115819 265.135615,485.300852 C262.101783,485.424723 259.067951,485.515561 256.00952,485.515561 M37.2702186,193.890271 C52.6361687,193.890271 65.1404771,206.483819 65.1404771,221.96769 C65.1404771,237.443303 52.6361687,250.036852 37.2702186,250.036852 C32.3012934,250.036852 28.1277243,248.666013 24.8315066,246.940077 C24.9463002,242.257755 25.0446948,237.567174 25.4300735,232.942658 C25.4710712,232.471948 25.5448671,232.001239 25.5858649,231.530529 C26.0860372,225.98111 26.8075973,220.481239 27.7013478,215.030916 C27.8817379,213.932594 28.0621279,212.826013 28.2507175,211.72769 C29.2920599,205.889239 30.5055927,200.108594 31.9733116,194.410529 C33.7116154,194.071948 35.4827175,193.890271 37.2702186,193.890271 M511.154808,272.853884 C511.47459,268.898271 509.875679,265.025239 506.866445,262.448723 C503.88181,259.888723 499.831234,258.922529 495.993847,259.847432 C492.689429,260.656723 489.42601,261.069626 486.301983,261.069626 C463.712232,261.069626 445.337049,242.571561 445.337049,219.820594 C445.337049,212.908594 447.075352,206.070916 450.363371,200.034271 C452.774037,195.607948 452.282064,190.14111 449.10064,186.235045 C445.919216,182.320723 440.720704,180.75169 435.923969,182.2464 C430.692659,183.889755 425.24816,184.723819 419.729865,184.723819 C389.80972,184.723819 365.465266,160.197368 365.465266,130.06369 C365.465266,129.320465 365.522663,128.585497 365.57186,127.858787 L365.637457,126.743948 C365.891643,122.581884 364.038545,118.576723 360.725928,116.082787 C357.405112,113.588852 353.067552,112.944723 349.180967,114.356852 C343.137901,116.561755 336.939044,117.676594 330.748386,117.676594 C300.828241,117.676594 276.475588,93.1584 276.475588,63.0164645 C276.475588,57.0954323 277.484132,51.1496258 279.484822,45.3442065 C280.927942,41.1160774 280.001393,36.4172387 277.057756,33.0727226 C274.09772,29.7199484 269.587969,28.2417548 265.23401,29.1914323 C245.120522,33.6260129 225.359615,23.9475613 215.938337,6.47349677 C213.33908,1.65904516 207.92738,-0.867922581 202.573076,0.271690323 C109.442627,20.1984 36.630654,91.0856258 10.4986993,179.950658 C10.3265088,180.371819 10.1051211,180.776465 9.97392834,181.214142 C9.62134785,182.452852 9.383561,183.716335 9.04737959,184.963303 C7.94864036,189.009755 6.91549751,193.089239 6.01354739,197.201755 C5.65276735,198.853368 5.35758367,200.504981 5.02960181,202.164852 C4.2506449,206.046142 3.56188299,209.952206 2.9633161,213.891303 C2.77472653,215.154787 2.55333878,216.418271 2.3811483,217.681755 C1.70058594,222.6944 1.18401451,227.756594 0.798635828,232.843561 C0.70024127,234.040981 0.634644898,235.2384 0.56084898,236.435819 C0.224667574,241.745755 0.00327981859,247.072206 0.00327981859,252.439948 C0.00327981859,252.539045 0.0196789116,253.323561 0.027878458,253.505239 L0.027878458,253.538271 C0.511651701,368.820852 76.4804499,466.488981 180.639289,498.868852 C180.704885,498.893626 180.762282,498.943174 180.827878,498.967948 C181.574037,499.199174 182.344795,499.347819 183.090953,499.570787 C187.617103,500.933368 192.200649,502.147303 196.825194,503.253884 C198.276513,503.600723 199.727833,503.955819 201.179153,504.269626 C206.607253,505.467045 212.08455,506.540594 217.627443,507.382916 C218.152214,507.465497 218.668785,507.506787 219.193556,507.58111 C224.285475,508.324335 229.43479,508.885884 234.616903,509.323561 C236.068223,509.439174 237.503144,509.554787 238.954463,509.653884 C244.595751,510.025497 250.278037,510.289755 256.00952,510.289755 C259.666518,510.289755 263.364513,510.190658 267.160903,510.017239 C269.948749,509.893368 272.703797,509.678658 275.467044,509.463948 C276.344395,509.397884 277.17255,509.37311 278.0663,509.290529 C278.099098,509.290529 278.131897,509.274013 278.164695,509.265755 C400.977502,498.431174 501.372749,398.508594 511.154808,272.853884" fill="#2E2E30" id="Fill-21"/></g></g></g></svg>