<svg width="170" height="170" xmlns="http://www.w3.org/2000/svg" preserveAspectRatio="xMidYMid meet">

 <g>
  <title>background</title>
  <rect fill="none" id="canvas_background" height="402" width="582" y="-1" x="-1"/>
 </g>
 <g>
  <title>Layer 1</title>
  <path fill="#333333" id="svg_2" d="m0,84.999999l0,85.000001l85.000001,0l85.000001,0l0,-85.000001l0,-85.000001l-85.000001,0l-85.000001,0l0,85.000001zm67.900001,-17l17.1,12l17.1,-12c9.4,-6.6 17.5,-12 18,-12c0.5,0 0.9,1.9 0.9,4.3c0,3.2 -0.6,4.9 -2.2,6.4c-4.8,4.2 -33.1,23.4 -34.200001,23.1c-0.7,-0.2 -8.9,-5.7 -18.4,-12.3l-17.2,-12l0,-4.8c0,-2.6 0.4,-4.7 0.9,-4.7c0.4,0 8.5,5.4 18,12zm-1.1,23.7c9.2,6.4 17.4,11.7 18.2,11.7c0.8,0 9,-5.3 18.2,-11.7c9.1,-6.4 16.9,-11.7 17.2,-11.7c0.3,0 0.6,2.2 0.6,4.9l0,5l-18,12.5l-18,12.5l-18,-12.5l-18,-12.6l0,-4.9c0,-2.7 0.3,-4.9 0.6,-4.9c0.3,0 8.1,5.3 17.2,11.7zm-9,18.1c3.4,2.4 6.2,4.6 6.2,4.8c0,0.2 -3.4,0.4 -7.5,0.4l-7.5,0l0,-5.6c0,-6.2 -0.6,-6.3 8.8,0.4zm63.200001,-0.3l0,5.5l-8.2,0l-8.2,0l7.9,-5.5c4.4,-3 8.1,-5.5 8.2,-5.5c0.2,0 0.3,2.5 0.3,5.5z"/>
 </g>
</svg>